<svg version="1.1" xmlns="http://www.w3.org/2000/svg" width="250" height="100">
<path d="M0 0 C49.5 0 99 0 150 0 C150 33 150 66 150 100 C100.5 100 51 100 0 100 C0 67 0 34 0 0 Z " fill="#FDFDFD" transform="translate(50,0)"/>
<path d="M0 0 C0.66 0 1.32 0 2 0 C2 1.98 2 3.96 2 6 C0.56445975 6.50559908 -0.8735202 7.0042749 -2.3125 7.5 C-3.51326172 7.91765625 -3.51326172 7.91765625 -4.73828125 8.34375 C-7 9 -7 9 -10 9 C-10 9.66 -10 10.32 -10 11 C-8.35 10.67 -6.7 10.34 -5 10 C-5.33 11.65 -5.66 13.3 -6 15 C-6.99 15.33 -7.98 15.66 -9 16 C-9.33 18.31 -9.66 20.62 -10 23 C-11.98 23 -13.96 23 -16 23 C-16 17.39 -16 11.78 -16 6 C-8.5625 3.5625 -8.5625 3.5625 -6.21704102 2.79907227 C-2.84304796 1.8804704 -2.84304796 1.8804704 0 0 Z " fill="#4149BF" transform="translate(103,33)"/>
<path d="M0 0 C1.50046875 0.00386719 1.50046875 0.00386719 3.03125 0.0078125 C4.0315625 0.00523438 5.031875 0.00265625 6.0625 0 C8.53125 0.1328125 8.53125 0.1328125 9.53125 1.1328125 C9.57205783 3.13239614 9.57379356 5.13326504 9.53125 7.1328125 C8.87125 7.1328125 8.21125 7.1328125 7.53125 7.1328125 C7.20125 6.4728125 6.87125 5.8128125 6.53125 5.1328125 C5.87125 5.1328125 5.21125 5.1328125 4.53125 5.1328125 C4.20125 5.7928125 3.87125 6.4528125 3.53125 7.1328125 C0.59375 7.8828125 0.59375 7.8828125 -2.46875 8.1328125 C-3.12875 7.4728125 -3.78875 6.8128125 -4.46875 6.1328125 C-3.74541848 0.20149403 -3.74541848 0.20149403 0 0 Z " fill="#9CA0AA" transform="translate(144.46875,45.8671875)"/>
<path d="M0 0 C1.32 0 2.64 0 4 0 C4 3.3 4 6.6 4 10 C2.68 10 1.36 10 0 10 C0 6.7 0 3.4 0 0 Z " fill="#4850C2" transform="translate(82,46)"/>
<path d="M0 0 C2.31 0 4.62 0 7 0 C7 0.66 7 1.32 7 2 C5.35 2 3.7 2 2 2 C2 2.99 2 3.98 2 5 C3.32 5 4.64 5 6 5 C6 5.66 6 6.32 6 7 C4.68 7 3.36 7 2 7 C2 8.32 2 9.64 2 11 C1.34 11 0.68 11 0 11 C0 7.37 0 3.74 0 0 Z " fill="#606675" transform="translate(109,42)"/>
<path d="M0 0 C2.625 0.375 2.625 0.375 5 1 C5 1.99 5 2.98 5 4 C3.35 4 1.7 4 0 4 C0 4.66 0 5.32 0 6 C1.65 6 3.3 6 5 6 C4.67 6.66 4.34 7.32 4 8 C2.35 7.67 0.7 7.34 -1 7 C-1.625 4.625 -1.625 4.625 -2 2 C-1.34 1.34 -0.68 0.68 0 0 Z " fill="#6D7281" transform="translate(127,46)"/>
<path d="M0 0 C1.98 0.495 1.98 0.495 4 1 C3.01 1 2.02 1 1 1 C1 1.66 1 2.32 1 3 C2.32 3.33 3.64 3.66 5 4 C4.67 5.32 4.34 6.64 4 8 C2.35 7.67 0.7 7.34 -1 7 C0.32 6.67 1.64 6.34 3 6 C3 5.34 3 4.68 3 4 C1.68 3.67 0.36 3.34 -1 3 C-0.67 2.01 -0.34 1.02 0 0 Z " fill="#646A79" transform="translate(134,46)"/>
<path d="M0 0 C1.67542976 0.28604898 3.34385343 0.61781233 5 1 C5.33 1.99 5.66 2.98 6 4 C4.02 4 2.04 4 0 4 C-0.33 4.66 -0.66 5.32 -1 6 C-1.042721 4.33388095 -1.04063832 2.66617115 -1 1 C-0.67 0.67 -0.34 0.34 0 0 Z " fill="#6F7481" transform="translate(118,46)"/>
<path d="M0 0 C1.32 0 2.64 0 4 0 C4 1.98 4 3.96 4 6 C2.68 6 1.36 6 0 6 C0 4.02 0 2.04 0 0 Z " fill="#575EC2" transform="translate(77,50)"/>
<path d="M0 0 C0.33 0.66 0.66 1.32 1 2 C-0.25 3.5625 -0.25 3.5625 -2 5 C-4.1875 4.6875 -4.1875 4.6875 -6 4 C-6 3.01 -6 2.02 -6 1 C-4.02 0.67 -2.04 0.34 0 0 Z " fill="#B8BAC4" transform="translate(124,49)"/>
</svg>
