<svg xmlns="http://www.w3.org/2000/svg" viewBox="0 0 1024 768">
  <g transform="matrix(3.0247 0 0 3.0247 512 384)" fill="#4F39F6">
    
    <g transform="translate(-95.0028 -0.2156)">
      <path transform="translate(-100.0018 -99.2778)" d="M84.0884 76.2358h31.8268v5.4005H84.0884zM115.9152 101.7259H89.4889v20.5939H84.0884V96.3255h31.8268z"/>
    </g>

    <g transform="translate(-59.0747 4.104)">
      <path transform="translate(-100.0019 -103.5982)" d="M83.1524 103.5261c0-12.457 6.4806-19.0095 16.8495-19.0095s16.8494 6.5525 16.8494 19.0095v1.4402H88.6968c.2881 9.0728 3.3843 12.1691 9.3608 12.1691h4.5364c3.7444 0 6.5526-2.3762 8.2808-7.0566h5.4004c-2.0162 7.9926-7.9207 12.601-16.2734 12.601-10.8009 0-16.8495-7.2005-16.8495-19.1537zm28.0105-3.6003c-.7202-7.4165-3.7444-10.0088-9.2168-10.0088h-3.8885c-5.4724 0-8.4967 2.5923-9.2168 10.0088z"/>
    </g>

    <g transform="translate(-22.2107 4.104)">
      <path transform="translate(-100.0019 -103.5982)" d="M83.1524 103.5261c0-12.457 6.4806-19.0095 16.8495-19.0095s16.8494 6.5525 16.8494 19.0095v1.4402H88.6968c.2881 9.0728 3.3843 12.1691 9.3608 12.1691h4.5364c3.7444 0 6.5526-2.3762 8.2808-7.0566h5.4004c-2.0162 7.9926-7.9207 12.601-16.2734 12.601-10.8009 0-16.8495-7.2005-16.8495-19.1537zm28.0105-3.6003c-.7202-7.4165-3.7444-10.0088-9.2168-10.0088h-3.8885c-5.4724 0-8.4967 2.5923-9.2168 10.0088z"/>
    </g>

    <g transform="translate(13.2132 4.104)">
      <path transform="translate(-100.0022 -103.5982)" d="M84.5928 110.0787h5.4004c0 5.2565 2.5205 7.2006 8.4971 7.2006h2.7358c6.2646 0 8.7852-.1439 8.7852-5.1843 0-3.7444-5.0406-5.1126-10.729-6.7687-6.9126-2.1602-14.6172-3.3123-14.6172-11.3049.0717-8.0647 6.6245-9.5048 15.1211-9.5048 7.6328 0 15.0493 2.4481 15.0493 11.7369h-5.4004c0-5.6884-2.5923-6.3365-8.9287-6.3365h-2.4483c-5.2563 0-7.9927.432-7.9927 3.7444 0 4.0322 4.5362 4.3923 10.2247 6.2644 7.1289 2.0162 15.1215 3.9604 15.1215 11.305 0 10.945-7.6328 11.449-14.1855 11.449h-2.7358c-8.4249 0-13.8975-3.4563-13.8975-12.6011z"/>
    </g>

    <g transform="translate(48.3493 4.104)">
      <path transform="translate(-100.0017 -103.5982)" d="M83.4402 103.5261c0-12.457 6.4806-19.0095 16.8495-19.0095 7.9206 0 13.8972 3.8882 16.0574 11.881h-5.4005c-1.6562-4.2484-4.1763-6.4806-7.9207-6.4806h-4.8244c-6.2645 0-9.3608 3.4563-9.3608 13.6091s3.0963 13.6093 9.3608 13.6093h4.6804c3.7443 0 6.5526-2.3762 8.2807-7.0567h5.4005c-2.0162 7.9927-7.9207 12.6011-16.2734 12.6011-10.8009 0-16.8495-7.2005-16.8495-19.1537z"/>
    </g>

    <g transform="translate(85.2133 4.14)">
      <path transform="translate(-100.002 -103.6342)" d="M82.8645 103.4541c0-11.881 7.1286-18.9375 17.6416-18.9375 4.7524 0 8.4967 1.7281 11.233 4.6084v-4.2484h5.4004v37.4432h-5.4004v-4.2484c-2.7363 2.9523-6.4806 4.6804-11.233 4.6804-10.513 0-17.6416-7.1286-17.6416-19.2977zm15.1934 13.5372h4.6804c5.8325 0 9.0008-4.1043 9.0008-10.5848v-5.9045c0-6.4806-3.1683-10.5849-9.0008-10.5849h-4.6804c-5.8325 0-9.7929 5.0404-9.7929 13.537s3.9604 13.5372 9.7929 13.5372z"/>
    </g>

    <g transform="translate(108.216 -0.2156)">
      <path transform="translate(-100.001 -99.2779)" d="M102.7012 76.2359v46.0839h-5.4004V76.2359z"/>
    </g>

  </g>
</svg>